# xmcd CD database file
#
# Track frame offsets:
#	150
#	13925
#	25320
#	41665
#	59290
#	71955
#	86275
#	100507
#	123070
#	135247
#
# Disc length: 1970 seconds
#
# Revision: 0
# Processed by: cddbd v1.5.2PL0 Copyright (c) Steve Scherf et al.
# Submitted via: CDex 1.81
#
DISCID=7907b00a
DTITLE=Dizzy Gillespie - Jazz Duo
DYEAR=2000
DGENRE=Jazz
TTITLE0=Oop-Bop-Sh'Bam
TTITLE1=Our Delight
TTITLE2=Desafinado
TTITLE3=Lorraine
TTITLE4=Dizzy Atmosphere
TTITLE5=Hot House
TTITLE6=Emanon
TTITLE7=Three Hearts In A Tangle
TTITLE8=Groovin' High
TTITLE9=All The Things You Are
EXTD=YEAR: 2000
EXTT0=
EXTT1=
EXTT2=
EXTT3=
EXTT4=
EXTT5=
EXTT6=
EXTT7=
EXTT8=
EXTT9=
PLAYORDER=
